<svg width="90" height="35" viewBox="0 0 90 35" fill="none" xmlns="http://www.w3.org/2000/svg">
<g class="isolate" clip-path="url(#clip0_349_1914)">
<path d="M90 19.831L70.3355 0H57.3072L46.0545 11.453L34.6148 0H23.0774L0 23.1041V34.6548H12.9795L24.2349 23.2045L35.6666 34.6575H48.7518L62.0702 21.1337L75.5783 34.6575H89.8075L89.9051 34.7525V34.6575H90L89.9051 34.5571L90 19.831ZM32.6874 14.5333C32.6358 14.4818 32.5654 14.4574 32.4976 14.4574C32.4271 14.4574 32.3566 14.4845 32.3051 14.5388L12.8657 34.321H0.653313L34.6148 0.320249L45.7699 11.4883L37.7837 19.4836L32.6874 14.5333ZM89.6367 34.0387L69.2458 13.7816C69.1943 13.73 69.1265 13.7029 69.056 13.7029C69.056 13.7029 69.056 13.7029 69.0533 13.7029C68.9801 13.7029 68.9124 13.7327 68.8608 13.7843L48.6352 34.321H36.3199L70.3355 0.320249L89.7289 19.8772L89.6367 34.0387Z" fill="white"/>
</g>
<defs>
<clipPath id="clip0_349_1914">
<rect width="90" height="34.7525" fill="white"/>
</clipPath>
</defs>
</svg>
